<svg width="900" height="560" viewBox="0 0 900 560" fill="none" xmlns="http://www.w3.org/2000/svg">
  <rect width="900" height="560" rx="32" fill="#EAF3F8"/>
  <path d="M80 444L340 292L610 432L356 514L80 444Z" fill="#CFE5D8"/>
  <path d="M80 444L356 514M340 292L356 514M610 432L356 514" stroke="#8EB7A1" stroke-width="3"/>
  <path d="M122 424L349 321L564 430L354 488L122 424Z" stroke="#6D9C82" stroke-width="3" stroke-dasharray="9 9"/>
  <rect x="252" y="146" width="278" height="255" rx="8" fill="white" stroke="#174F78" stroke-width="5"/>
  <path d="M229 168L391 66L553 168H229Z" fill="#174F78"/>
  <rect x="279" y="190" width="63" height="62" rx="4" fill="#DCEBF4" stroke="#2D719F" stroke-width="4"/>
  <rect x="439" y="190" width="63" height="62" rx="4" fill="#DCEBF4" stroke="#2D719F" stroke-width="4"/>
  <rect x="356" y="270" width="71" height="131" rx="4" fill="#DCEBF4" stroke="#2D719F" stroke-width="4"/>
  <circle cx="410" cy="336" r="5" fill="#174F78"/>
  <path d="M308 146V115H347V122" stroke="white" stroke-width="6" stroke-linecap="round"/>
  <rect x="94" y="250" width="175" height="117" rx="11" fill="white" stroke="#174F78" stroke-width="5"/>
  <path d="M121 250L146 202H230L257 250" fill="#DCEBF4" stroke="#174F78" stroke-width="5" stroke-linejoin="round"/>
  <path d="M115 308H249" stroke="#2D719F" stroke-width="5" stroke-linecap="round"/>
  <circle cx="139" cy="367" r="25" fill="#174F78"/>
  <circle cx="226" cy="367" r="25" fill="#174F78"/>
  <circle cx="139" cy="367" r="10" fill="#EAF3F8"/>
  <circle cx="226" cy="367" r="10" fill="#EAF3F8"/>
  <rect x="593" y="126" width="199" height="255" rx="14" fill="white" stroke="#174F78" stroke-width="5"/>
  <path d="M636 177H750M636 220H750M636 263H715" stroke="#7DAAC5" stroke-width="10" stroke-linecap="round"/>
  <path d="M705 339L744 356L763 309" stroke="#16805C" stroke-width="13" stroke-linecap="round" stroke-linejoin="round"/>
  <path d="M664 126V98C664 79 680 64 699 64H723C742 64 758 79 758 98V126" stroke="#174F78" stroke-width="5"/>
  <circle cx="693" cy="454" r="67" fill="#174F78"/>
  <path d="M693 405L738 422V457C738 487 718 506 693 517C668 506 648 487 648 457V422L693 405Z" fill="#EAF3F8" stroke="white" stroke-width="5" stroke-linejoin="round"/>
  <path d="M671 460L686 475L717 442" stroke="#16805C" stroke-width="9" stroke-linecap="round" stroke-linejoin="round"/>
  <circle cx="109" cy="99" r="19" fill="#E8B84D"/>
  <path d="M109 59V38M109 160V139M69 99H48M170 99H149M80 70L65 55M153 143L138 128M138 70L153 55M65 143L80 128" stroke="#E8B84D" stroke-width="7" stroke-linecap="round"/>
  <text x="42" y="530" fill="#174F78" font-family="Arial, sans-serif" font-size="22" font-weight="700" letter-spacing="2">BARANG MILIK NEGARA</text>
</svg>